<svg width="28" height="28" viewBox="0 0 28 28" fill="none" xmlns="http://www.w3.org/2000/svg">
<path d="M7.35421 23.0916L8.36781 23.6838C10.0771 24.6807 12.0212 25.204 14 25.2C16.2152 25.2 18.3806 24.5431 20.2224 23.3125C22.0643 22.0818 23.4997 20.3326 24.3474 18.2861C25.1951 16.2396 25.417 13.9875 24.9848 11.815C24.5526 9.64248 23.486 7.64679 21.9197 6.08047C20.3532 4.51402 18.3576 3.44736 16.185 3.01518C14.0125 2.58314 11.7604 2.8049 9.71391 3.6526C7.66739 4.5003 5.91823 5.93586 4.6875 7.77769C3.4569 9.61952 2.80002 11.7849 2.80002 14C2.80002 16.0104 3.32782 17.9382 4.31762 19.6336L4.90842 20.6472L3.99422 24.0086L7.35421 23.0916ZM0.00561834 28L1.89842 21.0448C0.65116 18.9068 -0.00404124 16.4752 1.87543e-05 14C1.87543e-05 6.2678 6.26781 0 14 0C21.7322 0 28 6.2678 28 14C28 21.7322 21.7322 28 14 28C11.5259 28.004 9.09539 27.3493 6.95802 26.103L0.00561834 28ZM8.94741 7.43119C9.13501 7.41719 9.32401 7.41719 9.51161 7.42559C9.58721 7.43119 9.66281 7.43959 9.73841 7.44799C9.96101 7.47319 10.206 7.609 10.2886 7.7966C10.7058 8.74298 11.1118 9.69638 11.5038 10.6526C11.5906 10.8654 11.5388 11.1384 11.3736 11.4044C11.2599 11.5843 11.1372 11.7582 11.0054 11.9252C10.8472 12.1282 10.507 12.5006 10.507 12.5006C10.507 12.5006 10.3684 12.6658 10.4216 12.8716C10.4412 12.95 10.5056 13.0634 10.5644 13.1586L10.647 13.2916C11.0054 13.8894 11.487 14.4956 12.075 15.0668C12.243 15.2292 12.4068 15.3958 12.5832 15.5512C13.2384 16.1294 13.9804 16.6012 14.7812 16.9512L14.7882 16.954C14.9072 17.0058 14.9674 17.0338 15.141 17.108C15.2278 17.1444 15.3174 17.1766 15.4084 17.2004C15.5025 17.2243 15.6015 17.2198 15.6929 17.1875C15.7845 17.155 15.8642 17.0962 15.9222 17.0184C16.9358 15.7906 17.0282 15.7108 17.0366 15.7108V15.7136C17.107 15.6479 17.1907 15.5981 17.282 15.5674C17.3733 15.5368 17.47 15.526 17.5658 15.5358C17.6498 15.5414 17.7352 15.5568 17.8136 15.5918C18.557 15.932 19.7736 16.4626 19.7736 16.4626L20.5884 16.828C20.7256 16.8938 20.8502 17.0492 20.8544 17.199C20.86 17.2928 20.8684 17.444 20.8362 17.7212C20.7914 18.0838 20.6822 18.5192 20.573 18.7474C20.4982 18.9032 20.399 19.0459 20.279 19.1702C20.1377 19.3186 19.983 19.4535 19.817 19.5734C19.7596 19.6166 19.7012 19.6586 19.642 19.6994C19.4678 19.8098 19.2889 19.9126 19.1058 20.0074C18.7453 20.1989 18.3473 20.3088 17.9396 20.3294C17.6806 20.3434 17.4216 20.363 17.1612 20.349C17.15 20.349 16.366 20.2272 16.366 20.2272C14.3756 19.7037 12.5348 18.7229 10.99 17.3628C10.6736 17.0842 10.381 16.7846 10.0814 16.4864C8.83541 15.2474 7.89461 13.9104 7.32341 12.6476C7.0311 12.0278 6.87317 11.3532 6.86001 10.668C6.85427 9.81804 7.13203 8.99036 7.64961 8.31599C7.75181 8.18439 7.84841 8.04719 8.01501 7.88899C8.19281 7.72099 8.30481 7.63138 8.42661 7.56978C8.58859 7.48872 8.76527 7.44099 8.94601 7.42979L8.94741 7.43119Z" fill="#080707"/>
</svg>
