<svg width="28" height="28" viewBox="0 0 28 28" fill="none" xmlns="http://www.w3.org/2000/svg">
<path d="M2.33301 4.66667C2.33301 4.02233 2.85534 3.5 3.49967 3.5H15.1663C15.8107 3.5 16.333 4.02233 16.333 4.66667V24.5H3.49967C2.85534 24.5 2.33301 23.9777 2.33301 23.3333V4.66667Z" stroke="#DA251E" stroke-width="1.66667"/>
<path d="M12.2503 24.5V19.25C12.2503 18.2835 11.4669 17.5 10.5003 17.5H8.16699C7.20047 17.5 6.41699 18.2835 6.41699 19.25V24.5" stroke="#DA251E" stroke-width="1.66667"/>
<path d="M16.333 14H24.4997C25.144 14 25.6663 14.5223 25.6663 15.1667V23.3333C25.6663 23.9777 25.144 24.5 24.4997 24.5H16.333V14Z" stroke="#DA251E" stroke-width="1.66667"/>
<path d="M7 10.5H11.6667" stroke="#DA251E" stroke-width="1.66667" stroke-linecap="round"/>
<path d="M19.833 17.5H22.1663" stroke="#DA251E" stroke-width="1.66667" stroke-linecap="round"/>
<path d="M19.833 21H22.1663" stroke="#DA251E" stroke-width="1.66667" stroke-linecap="round"/>
<path d="M9.33301 8.16663V12.8333" stroke="#DA251E" stroke-width="1.66667" stroke-linecap="round"/>
<path d="M4.08301 24.5H14.583" stroke="#DA251E" stroke-width="1.66667" stroke-linecap="round"/>
</svg>
