<svg width="17" height="16" viewBox="0 0 17 16" fill="none" xmlns="http://www.w3.org/2000/svg">
<path d="M14.4261 6.86895C14.5104 6.30368 14.4827 5.72498 14.3432 5.16855C14.1589 4.43348 13.7793 3.73735 13.2045 3.16252C12.6296 2.58769 11.9335 2.20811 11.1985 2.0238C10.642 1.88427 10.0633 1.85664 9.49805 1.9409" stroke="#EFEFEF" stroke-width="1.66667" stroke-linecap="round"/>
<path d="M11.8965 6.60115C11.9868 5.99562 11.7989 5.35662 11.3327 4.89049C10.8666 4.42435 10.2276 4.23638 9.62207 4.32665" stroke="#EFEFEF" stroke-width="1.66667" stroke-linecap="round"/>
<path d="M5.29189 2.9314C5.53409 2.9314 5.75723 3.06274 5.87476 3.27448L6.69026 4.74342C6.79703 4.93575 6.80203 5.16839 6.70366 5.36515L5.91806 6.93635C5.91806 6.93635 6.14573 8.10685 7.09853 9.05965C8.05133 10.0125 9.21789 10.2362 9.21789 10.2362L10.7889 9.45072C10.9858 9.35225 11.2186 9.35735 11.411 9.46432L12.8841 10.2833C13.0956 10.4009 13.2268 10.624 13.2268 10.866V12.5572C13.2268 13.4184 12.4268 14.0404 11.6108 13.7651C9.93483 13.1996 7.33326 12.1228 5.68433 10.4739C4.03536 8.82492 2.95863 6.22335 2.39311 4.54739C2.11777 3.73135 2.7398 2.9314 3.60102 2.9314H5.29189Z" stroke="#EFEFEF" stroke-width="1.66667"/>
</svg>
